<?xml version="1.0" encoding="iso-8859-1"?>
<!-- Generator: Adobe Illustrator 19.0.0, SVG Export Plug-In . SVG Version: 6.00 Build 0)  -->
<svg version="1.1" id="Capa_1" xmlns="http://www.w3.org/2000/svg" xmlns:xlink="http://www.w3.org/1999/xlink" x="0px" y="0px"
	 viewBox="0 0 512 512" style="enable-background:new 0 0 512 512;" xml:space="preserve">
<g transform="translate(-1)">
	<path style="fill:#B0D3F0;" d="M239.933,247.467l-77.653-68.898c-19.846-17.962-21.739-48.475-4.267-68.753
		c10.621-12.926,27.637-18.739,43.947-15.012s29.113,16.352,33.067,32.608l4.907,17.655H410.6l4.907-17.664
		c3.954-16.256,16.757-28.882,33.067-32.608c16.31-3.726,33.325,2.086,43.947,15.012c17.473,20.278,15.579,50.791-4.267,68.753
		L410.6,247.467H239.933z"/>
	<polygon style="fill:#F0C419;" points="239.933,238.933 239.933,136.533 248.467,119.467 402.067,119.467 410.6,136.533 
		410.6,238.933 402.067,256 248.467,256 	"/>
	<path style="fill:#2C2F38;" d="M325.267,0c4.713,0,8.533,3.821,8.533,8.533v51.2c0,4.713-3.821,8.533-8.533,8.533
		c-4.713,0-8.533-3.821-8.533-8.533v-51.2C316.733,3.821,320.554,0,325.267,0z"/>
	<path style="fill:#F0C419;" d="M240.36,136.533c4.377-43.609,41.079-76.811,84.907-76.811s80.529,33.202,84.907,76.811H240.36z"/>
	<g>
		<path style="fill:#2C2F38;" d="M239.933,170.667v-25.6c0-2.901,0.171-5.717,0.427-8.533h169.813
			c0.256,2.816,0.427,5.632,0.427,8.533v25.6H239.933z"/>
		<path style="fill:#2C2F38;" d="M239.933,230.4v-25.6H410.6v25.6c0,2.901-0.171,5.717-0.427,8.533H240.36
			C240.104,236.117,239.933,233.301,239.933,230.4z"/>
	</g>
	<path style="fill:#F29C1F;" d="M240.36,238.933h169.813c-4.377,43.609-41.079,76.811-84.907,76.811S244.737,282.542,240.36,238.933
		z"/>
	<path style="fill:#B0D3F0;" d="M274.067,264.533l77.653,68.898c19.846,17.962,21.739,48.475,4.267,68.753
		c-10.621,12.926-27.637,18.739-43.947,15.012c-16.31-3.726-29.113-16.352-33.067-32.608l-4.907-17.655H103.4l-4.907,17.664
		c-3.761,14.821-14.796,26.715-29.295,31.573c-17.27,5.25-36.01-0.239-47.718-13.978c-17.473-20.278-15.579-50.791,4.267-68.753
		l77.653-68.907H274.067z"/>
	<polygon style="fill:#F0C419;" points="274.067,273.067 274.067,375.467 265.533,392.533 111.933,392.533 103.4,375.467 
		103.4,273.067 111.933,256 265.533,256 	"/>
	<path style="fill:#2C2F38;" d="M188.733,512c-4.713,0-8.533-3.82-8.533-8.533v-51.2c0-4.713,3.82-8.533,8.533-8.533
		s8.533,3.82,8.533,8.533v51.2C197.267,508.18,193.446,512,188.733,512z"/>
	<path style="fill:#F0C419;" d="M273.64,375.467c-4.377,43.609-41.079,76.811-84.907,76.811s-80.529-33.202-84.907-76.811H273.64z"
		/>
	<g>
		<path style="fill:#2C2F38;" d="M274.067,341.333v25.6c0,2.901-0.171,5.717-0.427,8.533H103.827
			c-0.256-2.816-0.427-5.632-0.427-8.533v-25.6H274.067z"/>
		<path style="fill:#2C2F38;" d="M274.067,281.6v25.6H103.4v-25.6c0-2.901,0.171-5.717,0.427-8.533H273.64
			C273.896,275.883,274.067,278.699,274.067,281.6z"/>
	</g>
	<path style="fill:#F0C419;" d="M273.64,273.067H103.827c4.377-43.609,41.079-76.811,84.907-76.811S269.263,229.458,273.64,273.067z
		"/>
</g>
<g>
</g>
<g>
</g>
<g>
</g>
<g>
</g>
<g>
</g>
<g>
</g>
<g>
</g>
<g>
</g>
<g>
</g>
<g>
</g>
<g>
</g>
<g>
</g>
<g>
</g>
<g>
</g>
<g>
</g>
</svg>
