<svg height="512" viewBox="0 0 512 512" width="512" xmlns="http://www.w3.org/2000/svg"><g id="Filled_outline" data-name="Filled outline"><path d="m448 216c0 106.04-85.96 192-192 192a191.986 191.986 0 1 1 192-192z" fill="#348fd9"/><path d="m448 216c0 106.04-85.96 192-192 192a191.62 191.62 0 0 1 -150.83-73.19 237.344 237.344 0 0 0 27.48 1.58c131.09 0 237.37-106.27 237.37-237.37a238.808 238.808 0 0 0 -3.35-39.93 192.345 192.345 0 0 1 81.33 156.91z" fill="#3086cd"/><g fill="#d0d24b"><path d="m264 264v104l-64-24v-32l-32-8v-40z"/><path d="m232 56-16 16 40 32h40v-32l-16-16z"/><path d="m264 160v40h-64l-32 32v32l-40-40v-40h-61.34a192.175 192.175 0 0 1 101.34-138.68v106.68h40v-40z"/><path d="m448 216h-16l-72 72h-64v-96l48-32v-48l25.95-18.29 20.68-14.58a191.366 191.366 0 0 1 57.37 136.87z"/></g><rect fill="#348fd9" height="48" rx="24" width="192" x="232" y="440"/><path d="m104 256v112a16 16 0 0 0 16 16 16 16 0 0 0 16-16v-56" fill="#348fd9"/><rect fill="#348fd9" height="48" rx="24" width="80" x="80" y="440"/><path d="m296 320v120a16 16 0 0 0 16 16 16 16 0 0 0 16-16v-72a16 16 0 0 1 16-16 16 16 0 0 1 16 16v24a16 16 0 0 0 16 16 16 16 0 0 0 16-16v-96" fill="#3086cd"/><path d="m200 326.7a236.181 236.181 0 0 0 64-29.94v71.24l-64-24z" fill="#c9cb45"/><path d="m448 216h-16l-72 72h-64v-16.76a236.67 236.67 0 0 0 74.02-172.22c0-1.78-.02-3.55-.07-5.31l20.68-14.58a191.366 191.366 0 0 1 57.37 136.87z" fill="#c9cb45"/><path d="m304 104v-32a8 8 0 0 0 -2.344-5.656l-16-16a7.994 7.994 0 0 0 -5.656-2.344h-48a7.994 7.994 0 0 0 -5.656 2.344l-16 16a8.007 8.007 0 0 0 .656 11.9l40 32a8 8 0 0 0 5 1.756h40a8 8 0 0 0 8-8zm-16-8h-29.195l-30.828-24.664 7.335-7.336h41.376l11.312 11.312z"/><path d="m256 448h16v-16h-16a32 32 0 0 0 0 64h144a32 32 0 0 0 0-64h-48v16h48a16 16 0 0 1 0 32h-144a16 16 0 0 1 0-32z"/><path d="m136 496a32 32 0 0 0 0-64h-32a32 32 0 0 0 0 64zm-48-32a16.019 16.019 0 0 1 16-16h32a16 16 0 0 1 0 32h-32a16.019 16.019 0 0 1 -16-16z"/><path d="m256 16c-110.281 0-200 89.719-200 200a197.966 197.966 0 0 0 40 119.853v40.147a23.983 23.983 0 0 0 47.405 5.173 200.776 200.776 0 0 0 112.595 34.827 198.415 198.415 0 0 0 32-2.593v26.593a24 24 0 0 0 48 0v-40.954c5.5-2.383 10.839-4.97 16-7.81v.764a24 24 0 0 0 48 0v-37.285a198.629 198.629 0 0 0 56-138.715c0-110.281-89.719-200-200-200zm183.8 192h-7.8a7.994 7.994 0 0 0 -5.656 2.344l-69.656 69.656h-52.688v-83.719l44.438-29.625a8 8 0 0 0 3.562-6.656v-43.883l37.362-26.688a183.3 183.3 0 0 1 50.438 118.571zm-279.8-148.9v92.9a8 8 0 0 0 8 8h40a8 8 0 0 0 8-8v-22.6l40 34.285v28.315h-56a7.994 7.994 0 0 0 -5.656 2.344l-32 32a8 8 0 0 0 -2.344 5.656v12.688l-24-24v-36.688a8 8 0 0 0 -8-8h-51.569a184.554 184.554 0 0 1 83.569-116.9zm41.938 245.138-25.938-6.484v-25.754h80v84.457l-48-18v-26.457a8 8 0 0 0 -6.062-7.762zm134.062 77.231v-13.469a8 8 0 0 1 16 0v4.713a168.506 168.506 0 0 1 -16 8.756zm48-85.469v96a8 8 0 0 1 -16 0v-24a24 24 0 0 0 -48 0v72a8 8 0 0 1 -16 0v-120h-16v77.134a182.024 182.024 0 0 1 -32 2.866 184.645 184.645 0 0 1 -112-38.208v-41.792h-16v56a8 8 0 0 1 -16 0v-112h-16v42.723a182.136 182.136 0 0 1 -24-90.723 184.715 184.715 0 0 1 1.616-24h46.384v32a8 8 0 0 0 2.344 5.656l37.656 37.656v36.688a8 8 0 0 0 6.062 7.762l25.938 6.484v25.754a8.005 8.005 0 0 0 5.188 7.492l64 24a8.066 8.066 0 0 0 2.812.508 8.006 8.006 0 0 0 8-8v-104a8 8 0 0 0 -8-8h-88v-20.688l27.312-27.312h60.688a8 8 0 0 0 8-8v-40a8 8 0 0 0 -2.8-6.074l-56-48a8 8 0 0 0 -13.2 6.074v32h-24v-93.675a183.607 183.607 0 0 1 201.657 27.8l-38.305 27.362a8.012 8.012 0 0 0 -3.352 6.513v43.719l-44.438 29.625a8 8 0 0 0 -3.562 6.656v96a8 8 0 0 0 8 8h64a7.994 7.994 0 0 0 5.656-2.344l69.656-69.656h4.3a182.259 182.259 0 0 1 -39.612 106.417v-34.417z"/></g></svg>