<svg height="512" viewBox="0 0 512 512" width="512" xmlns="http://www.w3.org/2000/svg"><g id="Filled_outline" data-name="Filled outline"><path d="m488 254.73c.7 128.13-102.61 232.57-230.73 233.27a232.13 232.13 0 0 1 -230.027-270.8l.21-1.2a232.617 232.617 0 0 1 123.5-166.91c.35-.18.7-.35 1.05-.53a231.645 231.645 0 0 1 245.78 23.8c.35.27.7.54 1.04.82a231.774 231.774 0 0 1 85.57 141.82c.06.33.12.67.17 1a233.091 233.091 0 0 1 3.437 38.73z" fill="#348fd9"/><path d="m488 254.73c.7 128.13-102.61 232.57-230.73 233.27a231.484 231.484 0 0 1 -167.57-70.24c163.24-13.13 291.62-149.76 291.62-316.37a321.15 321.15 0 0 0 -2.81-42.44 232.327 232.327 0 0 1 19.27 13.41c.35.27.7.54 1.04.82a231.774 231.774 0 0 1 85.573 141.82c.06.33.12.67.17 1a233.091 233.091 0 0 1 3.437 38.73z" fill="#3086cd"/><g fill="#d0d24b"><path d="m248 312v136l-64-24v-48l-32-24v-40z"/><path d="m232.003 64-16 24 40 48h32l40-48-24-24z"/><path d="m448 248-32 56v56l-40 32h-32v-80h-64v-72l32-32h80l16 40z"/><path d="m484.56 216h-44.56l-16-40h-96v-32l70.82-70.82a231.774 231.774 0 0 1 85.57 141.82c.06.33.12.67.17 1z"/><path d="m240 184v56h-56l-32 32v40l-56-48v-48h-68.547a232.617 232.617 0 0 1 123.5-166.91c.35-.18.7-.35 1.05-.53v127.44h32v-40z"/></g><path d="m152 408a64.013 64.013 0 0 1 -71.3 63.59c-28.14-3.11-51.55-25.36-55.9-53.33a63.961 63.961 0 0 1 31.2-65.63v-280.63a32 32 0 0 1 64 0v280.63a63.92 63.92 0 0 1 32 55.37z" fill="#60d1e0"/><path d="m152 408a64.013 64.013 0 0 1 -71.3 63.59c-28.14-3.11-51.55-25.36-55.9-53.33a63.961 63.961 0 0 1 31.2-65.63v-72.85c20.62-27.22 43.79-65.68 64-117.19v190.04a63.92 63.92 0 0 1 32 55.37z" fill="#5ac6d4"/><path d="m96 385.47v-257.47h-16v257.47a24 24 0 1 0 16 0z" fill="#f35244"/><path d="m80 88h16v40h-16z" fill="#3fb7c7"/><path d="m184 395.29a317.31 317.31 0 0 0 64-35.3v88.01l-64-24z" fill="#bec134"/><path d="m408 248h40l-32 56v56l-40 32h-32v-80h-42.63a316.784 316.784 0 0 0 61.59-104h29.04z" fill="#bec134"/><path d="m372.49 176a317.349 317.349 0 0 0 8.83-74.61c0-3.52-.06-7.04-.18-10.53l17.68-17.68a231.774 231.774 0 0 1 85.57 141.82c.06.33.12.67.17 1h-44.56l-16-40z" fill="#bec134"/><path d="m256 16a239.8 239.8 0 0 0 -115.875 29.766l3.875 7v123.234a8 8 0 0 0 8 8h32a8 8 0 0 0 8-8v-22.6l40 34.285v44.315h-48a7.981 7.981 0 0 0 -5.695 2.387l-31.524 32a7.99 7.99 0 0 0 -2.3 5.613l-.481 80a7.989 7.989 0 0 0 3.2 6.4l28.8 21.6v44a8.005 8.005 0 0 0 5.188 7.492l64 24a8.066 8.066 0 0 0 2.812.508 8.006 8.006 0 0 0 8-8v-136a8 8 0 0 0 -8-8h-87.523v-28.723l26.875-27.277h52.648a8 8 0 0 0 8-8v-56a8 8 0 0 0 -2.8-6.074l-56-48a8 8 0 0 0 -13.2 6.074v32h-16v-114.445a223.791 223.791 0 0 1 226.542 20.587l-64.2 64.2a8 8 0 0 0 -2.342 5.658v32a8 8 0 0 0 8 8h90.586l13.984 34.973a8.007 8.007 0 0 0 7.43 5.027h37.678a224.741 224.741 0 0 1 2.322 32c0 123.516-100.484 224-224 224a221.72 221.72 0 0 1 -99.367-23.164l-7.11 14.336a237.639 237.639 0 0 0 106.477 24.828c132.336 0 240-107.664 240-240s-107.664-240-240-240zm-16 420.457-48-18v-42.457a7.989 7.989 0 0 0 -3.2-6.4l-28.8-21.6v-28h80zm205.414-228.457-13.984-34.973a8.007 8.007 0 0 0 -7.43-5.027h-88v-20.688l63.31-63.312a224.224 224.224 0 0 1 75.457 124z"/><path d="m333.656 82.344-24-24a7.994 7.994 0 0 0 -5.656-2.344h-72a8 8 0 0 0 -6.656 3.562l-16 24a8 8 0 0 0 .508 9.559l40 48a8.008 8.008 0 0 0 6.148 2.879h32a8.008 8.008 0 0 0 6.148-2.879l40-48a7.994 7.994 0 0 0 -.492-10.777zm-49.406 45.656h-24.5l-33.781-40.531 10.312-15.469h64.407l16.492 16.492z"/><path d="m344 400h32a8 8 0 0 0 5-1.754l40-32a7.992 7.992 0 0 0 3-6.246v-53.875l30.945-54.156a8 8 0 0 0 -6.945-11.969h-34.586l-13.984-34.973a8.007 8.007 0 0 0 -7.43-5.027h-80a7.994 7.994 0 0 0 -5.656 2.344l-32 32a8 8 0 0 0 -2.344 5.656v72a8 8 0 0 0 8 8h56v72a8 8 0 0 0 8 8zm-56-96v-60.688l27.312-27.312h71.274l13.984 34.973a8.007 8.007 0 0 0 7.43 5.027h26.211l-25.156 44.031a8.028 8.028 0 0 0 -1.055 3.969v52.156l-34.8 27.844h-21.2v-72a8 8 0 0 0 -8-8z"/><path d="m88 32a40.047 40.047 0 0 0 -40 40v64.293a239.864 239.864 0 0 0 -32 119.707 236.642 236.642 0 0 0 22.055 100.362 71.856 71.856 0 0 0 -21.164 63.13c4.882 31.3 31.343 56.559 62.921 60.055a73.745 73.745 0 0 0 8.024.441 71.95 71.95 0 0 0 40.164-131.788v-276.2a40.047 40.047 0 0 0 -40-40zm0 360a16 16 0 1 1 -16 16 16.019 16.019 0 0 1 16-16zm-8-104h-16v-16h16zm0-32h-16v-16h16zm0-32h-16v-16h16zm0-32h-16v-16h16zm-16 112h16v16h-16zm16-144h-16v-16h16zm-32 48h-10.727a223.71 223.71 0 0 1 10.727-35zm-13.65 16h13.65v115.109a221.185 221.185 0 0 1 -16-83.109 224.9 224.9 0 0 1 2.35-32zm109.65 184a56.021 56.021 0 0 1 -62.422 55.641c-24.539-2.715-45.094-22.317-48.875-46.61a56 56 0 0 1 27.305-57.476 8 8 0 0 0 3.992-6.922v-16.633h16v41.136a32 32 0 1 0 16 0v-249.136h-32v-16h24v-16h-24v-24a24 24 0 0 1 48 0v280.633a8 8 0 0 0 3.992 6.922 56.2 56.2 0 0 1 28.008 48.445z"/></g></svg>