<svg height="512" viewBox="0 0 512 512" width="512" xmlns="http://www.w3.org/2000/svg"><g id="filled_outline" data-name="filled outline"><g fill="#8ed2ff"><path d="m328 196a72.209 72.209 0 0 0 -10.29-37.15l-37.71-62.85h-48l-37.71 62.85a72.209 72.209 0 0 0 -10.29 37.15 12 12 0 0 0 12 12h12a24 24 0 0 0 -24 24 24 24 0 0 0 24 24 24 24 0 0 0 -24 24 24 24 0 0 0 24 24 24 24 0 0 0 -24 24 24 24 0 0 0 24 24 24 24 0 0 0 -24 24v34q0 .69.031 1.373c.876 19.44 21.018 32.037 39.2 25.11l22.8-8.686a28.009 28.009 0 0 1 19.936 0l22.8 8.686c18.184 6.927 38.326-5.67 39.2-25.11q.033-.682.033-1.373v-34a24 24 0 0 0 -24-24 24 24 0 0 0 24-24 24 24 0 0 0 -24-24 24 24 0 0 0 24-24 24 24 0 0 0 -24-24 24 24 0 0 0 24-24 24 24 0 0 0 -24-24h12a12 12 0 0 0 12-12z"/><path d="m185.38 336h141.24a24 24 0 0 1 -22.62 16h-96a23.979 23.979 0 0 1 -22.62-16z"/><path d="m185.38 288h141.24a24 24 0 0 1 -22.62 16h-96a23.979 23.979 0 0 1 -22.62-16z"/><path d="m185.38 240h141.24a24 24 0 0 1 -22.62 16h-96a23.979 23.979 0 0 1 -22.62-16z"/><path d="m328 196a12 12 0 0 1 -12 12h-120a11.984 11.984 0 0 1 -12-12c0-1.34.04-2.67.11-4h143.78c.07 1.33.11 2.66.11 4z"/></g><path d="m228 64h56a4 4 0 0 1 4 4v28a0 0 0 0 1 0 0h-64a0 0 0 0 1 0 0v-28a4 4 0 0 1 4-4z" fill="#76afd4"/><path d="m246.031 435.791a8 8 0 0 1 -2.973-15.43l32.315-12.926a33.857 33.857 0 0 1 25.254 0 8 8 0 0 1 -5.941 14.855 17.933 17.933 0 0 0 -13.372 0l-32.314 12.926a7.969 7.969 0 0 1 -2.969.575z" fill="#bce1ff"/><path d="m297.238 184a8 8 0 0 1 -6.821-3.808l-4.923-8a8 8 0 0 1 13.627-8.386l4.923 8a8 8 0 0 1 -6.806 12.194z" fill="#bce1ff"/><path d="m278.777 154a8 8 0 0 1 -6.821-3.808l-14.769-24a8 8 0 0 1 13.626-8.386l14.77 24a8 8 0 0 1 -6.806 12.194z" fill="#bce1ff"/><path d="m328 192v4a12 12 0 0 1 -12 12h-120a11.984 11.984 0 0 1 -12-12v-4z" fill="#76afd4"/><path d="m326.62 240a24 24 0 0 1 -22.62 16h-96a23.979 23.979 0 0 1 -22.62-16z" fill="#76afd4"/><path d="m326.62 288a24 24 0 0 1 -22.62 16h-96a23.979 23.979 0 0 1 -22.62-16z" fill="#76afd4"/><path d="m326.62 336a24 24 0 0 1 -22.62 16h-96a23.979 23.979 0 0 1 -22.62-16z" fill="#76afd4"/><path d="m425.705 86.294a240 240 0 1 0 -339.405 339.412 240 240 0 1 0 339.405-339.412zm-11.313 11.314a223.976 223.976 0 0 1 5.546 311.017l-316.563-316.564a223.977 223.977 0 0 1 311.017 5.547zm-316.784 316.784a223.976 223.976 0 0 1 -5.546-311.017l316.563 316.563a223.976 223.976 0 0 1 -311.017-5.546z" fill="#e13029"/><path d="m256 16a240 240 0 0 0 -169.7 409.706 240 240 0 1 0 339.405-339.412 238.426 238.426 0 0 0 -169.705-70.294zm0 464a223.986 223.986 0 0 1 -163.938-376.625l84.366 84.367a80.26 80.26 0 0 0 -.428 8.258 19.964 19.964 0 0 0 7.425 15.532 31.929 31.929 0 0 0 3.443 44.468 31.934 31.934 0 0 0 0 48 31.934 31.934 0 0 0 0 48 31.923 31.923 0 0 0 -10.868 24v34c0 .581.014 1.159.039 1.733a35.75 35.75 0 0 0 16.345 28.533 37.326 37.326 0 0 0 33.7 3.692l22.8-8.685a19.974 19.974 0 0 1 14.24 0l22.8 8.685a37.344 37.344 0 0 0 33.7-3.692 35.75 35.75 0 0 0 16.345-28.533c.025-.574.039-1.152.039-1.733v-34a31.923 31.923 0 0 0 -10.868-24 32.2 32.2 0 0 0 6.925-8.629l76.568 76.567a222.4 222.4 0 0 1 -152.633 60.062zm-19.471-376h38.942l35.379 58.966a64.219 64.219 0 0 1 9.15 33.034 4 4 0 0 1 -4 4h-104.686l-17.8-17.8a64.222 64.222 0 0 1 7.639-19.231zm-4.529-16v-16h48v16zm72 160h-44.686l-32-32h76.686a16 16 0 0 1 0 32zm16 32a16.02 16.02 0 0 1 -12.981 15.7l-31.7-31.7h28.681a16.019 16.019 0 0 1 16 16zm-115.019-63.7 31.705 31.7h-28.686a16 16 0 0 1 -3.019-31.705zm3.019 47.7h44.686l32 32h-76.686a16 16 0 0 1 0-32zm0 48h92.686l19.019 19.019a16.02 16.02 0 0 1 -15.705 12.981h-96a16 16 0 0 1 0-32zm0 48h96a16.019 16.019 0 0 1 16 16v34c0 .34-.008.677-.023 1.013a19.922 19.922 0 0 1 -9.141 15.878 21.022 21.022 0 0 1 -19.222 2.115l-13.875-5.286 3.575-1.43a17.933 17.933 0 0 1 13.372 0 8 8 0 0 0 5.941-14.855 33.857 33.857 0 0 0 -25.254 0l-32.315 12.926c-.039.015-.074.035-.112.051l-22.56 8.594a21.027 21.027 0 0 1 -19.222-2.115 19.922 19.922 0 0 1 -9.141-15.878c-.015-.336-.023-.673-.023-1.013v-34a16.019 16.019 0 0 1 16-16zm211.938 48.625-84.138-84.135a31.949 31.949 0 0 0 -10.668-20.49 31.934 31.934 0 0 0 0-48 31.929 31.929 0 0 0 3.443-44.468 19.964 19.964 0 0 0 7.425-15.532 80.22 80.22 0 0 0 -11.43-41.266l-31.519-52.534a7.983 7.983 0 0 0 2.949-6.2v-28a12.013 12.013 0 0 0 -12-12h-56a12.013 12.013 0 0 0 -12 12v28a7.983 7.983 0 0 0 2.949 6.2l-31.519 52.534a80.224 80.224 0 0 0 -6.843 14.539l-77.212-77.212a223.986 223.986 0 0 1 316.563 316.564z"/><path d="m285.494 172.193 4.923 8a8 8 0 0 0 13.627-8.386l-4.923-8a8 8 0 0 0 -13.627 8.386z"/><path d="m271.956 150.193a8 8 0 0 0 13.627-8.386l-14.77-24a8 8 0 0 0 -13.626 8.386z"/></g></svg>