<svg id="Flat" height="512" viewBox="0 0 512 512" width="512" xmlns="http://www.w3.org/2000/svg"><path d="m16 88c59.99905 0 59.99905 32 119.99811 32 59.99845 0 59.99845-32 119.99691-32 60.00125 0 60.00125 32 120.00249 32s60.00125-32 120.00249-32v408h-480z" fill="#8acce7"/><path d="m488 272v80a88.01171 88.01171 0 0 1 -80 87.64014v.35986a47.99972 47.99972 0 0 1 -48 48h-24l18.73-37.47021a47.99983 47.99983 0 0 1 42.93992-26.52979 47.99941 47.99941 0 0 1 -42.93992-26.53027l-18.73-37.46973h24a47.9946 47.9946 0 0 1 47.99 47.2002 40.00413 40.00413 0 0 0 -7.99-79.2002h-112a72 72 0 1 1 0-144h112a88.00123 88.00123 0 0 1 88 88z" fill="#396795"/><path d="m488 272v32a48.004 48.004 0 0 0 -48-48h-144a48.08575 48.08575 0 0 1 -45.27-32 46.50959 46.50959 0 0 1 -2.06006-8 48.10186 48.10186 0 0 1 0-16 46.4146 46.4146 0 0 1 1.12012-5.03 71.625 71.625 0 0 1 38.20994-10.97h112a88.00125 88.00125 0 0 1 70.66992 35.57007 86.56274 86.56274 0 0 1 5.92017 9.07007 87.43485 87.43485 0 0 1 11.3999 42.5c.01001.27978.01001.56986.01001.85986z" fill="#d3e1e9"/><path d="m487.99 271.14014a32.04531 32.04531 0 0 0 -31.99-31.14014h-195.77a47.96365 47.96365 0 0 1 -9.5-16h205.27a47.779 47.779 0 0 1 20.59009 4.64014 87.43485 87.43485 0 0 1 11.39991 42.5z" fill="#c4d4e0"/><path d="m470.66992 219.57007a31.76946 31.76946 0 0 0 -14.66992-3.57007h-207.33008a48.10186 48.10186 0 0 1 0-16h201.92017a87.7553 87.7553 0 0 1 20.07983 19.57007z" fill="#c4d4e0"/><path d="m293.657 277.657-11.314-11.314-6.343 6.343-6.343-6.343-11.314 11.314 6.343 6.343-6.343 6.343 11.314 11.314 6.343-6.343 6.343 6.343 11.314-11.314-6.343-6.343z" fill="#d3e1e9"/><path d="m360 312h-40v-16h29.85254a16.00861 16.00861 0 0 0 -13.85254-8h-16v-16h16a32.03667 32.03667 0 0 1 32 32 8.00039 8.00039 0 0 1 -8 8z" fill="#26507a"/><path d="m232 392v16a8 8 0 0 0 8 8 8 8 0 0 1 8 8v64h-56v-64a8 8 0 0 1 8-8 8 8 0 0 0 8-8v-16z" fill="#bde5f2"/><path d="m200 368h40v24h-40z" fill="#89b82c"/><path d="m192 440h56v24h-56z" fill="#89b82c"/><path d="m96 360 96-96-24-24-20 20a16.97055 16.97055 0 0 1 -24 0 16.97055 16.97055 0 0 1 0-24l20-20-24-24-96 96z" fill="#c4d4e0"/><path d="m232 104a40.01449 40.01449 0 0 1 -40 40h-72a40 40 0 0 1 0-80h72a40.00166 40.00166 0 0 1 40 40z" fill="#eedc9a"/><circle cx="192" cy="104" fill="#eebe33" r="40"/><circle cx="264" cy="72" fill="#eedc9a" r="40"/><g fill="#eebe33"><path d="m176 144h-39.1499a54.88636 54.88636 0 0 1 -4.79-5.32007 55.97283 55.97283 0 0 1 -7.39014-57.09009l14.66012 6.41016a40.01767 40.01767 0 0 0 36.66992 56z"/><path d="m152 144h-32a39.96309 39.96309 0 0 1 -7.93994-.79 55.96609 55.96609 0 0 1 -11.39014-61.62012l14.66016 6.41012a40.00145 40.00145 0 0 0 36.66992 56z"/></g></svg>