<svg height="512" viewBox="0 0 512 512" width="512" xmlns="http://www.w3.org/2000/svg"><g id="Filled_outline" data-name="Filled outline"><path d="m200 328 24 64h192l24-64" fill="#57bfcc"/><path d="m440 272v56h-48l-16 16h-120l-16-16h-40v-56l32-8 16-32h120l6.25 8.34 17.75 23.66z" fill="#60d1e0"/><path d="m440 272v56h-48l-16 16h-120l-.57-.57c40.59-18.71 85.64-50.21 118.82-103.09l17.75 23.66z" fill="#5ac6d4"/><path d="m432 136.78v55.22l-32 104h-56l24-104h-96l24 104h-56l-28.88-103.98-11.12-40.02-80-64-48-24v-40h72l96 32 135.63 17.24a63.992 63.992 0 0 1 56.37 63.54z" fill="#e0e0de"/><path d="m432 136.78v55.22l-32 104h-56l24-104h-96l24 104h-56l-28.88-103.98c60.83-17.69 149.69-50.29 202.16-100.47a63.9 63.9 0 0 1 18.72 45.23z" fill="#d6d6d4"/><path d="m152 296h-80v-40l16-8 24-16 40 16z" fill="#60d1e0"/><path d="m144 328h-64l-8-32h80z" fill="#57bfcc"/><path d="m224 416h104v16h-104z"/><path d="m344 416h72v16h-72z"/><path d="m240 448h160v16h-160z"/><path d="m256 480h80v16h-80z"/><path d="m352 480h32v16h-32z"/><path d="m448 272a8 8 0 0 0 -6.68-7.891l-22-3.688 20.329-66.069a7.96 7.96 0 0 0 .351-2.352v-55.219a72.04 72.04 0 0 0 -63.367-71.481l-134.844-17.136-95.258-31.75a8 8 0 0 0 -2.531-.414h-72a8 8 0 0 0 -8 8v40a8 8 0 0 0 4.422 7.156l47.242 23.617 77.32 61.86 28.286 101.834-23.2 5.767a8 8 0 0 0 -6.07 7.766v56a7.9 7.9 0 0 0 .563 2.792l-.055.02 24 64a8.005 8.005 0 0 0 7.492 5.188h192a8.005 8.005 0 0 0 7.492-5.188l24-64-.055-.02a7.891 7.891 0 0 0 .563-2.792zm-243-126.25-80-64a8.221 8.221 0 0 0 -1.422-.906l-43.578-21.789v-27.055h24v16h16v-16h22.7l94.766 31.586a7.882 7.882 0 0 0 1.523.352l135.683 17.242a56.029 56.029 0 0 1 49.328 55.601v54.019l-29.906 97.2h-40.039l21.745-94.2a7.77 7.77 0 0 0 0-1.8h.2v-32h-16v24h-81.758l-6.484-25.938-15.516 3.876 29.703 126.062h-39.867l-38.367-138.141a8.062 8.062 0 0 0 -2.711-4.109zm77.055 54.25h75.89l-5.539 24h-64.812zm-74.055 78.258 17.554-4.365 6.735 24.248a8 8 0 0 0 7.711 5.859h56a8.009 8.009 0 0 0 7.8-9.8l-12.513-54.2h57.426l-12.513 54.2a8.009 8.009 0 0 0 7.8 9.8h56a8 8 0 0 0 7.648-5.648l6.924-22.5 17.428 2.921v41.227h-40a7.994 7.994 0 0 0 -5.656 2.344l-13.656 13.656h-113.376l-13.656-13.656a7.994 7.994 0 0 0 -5.656-2.344h-32zm57.443 73.742h69.114l-5.333 32h-58.448zm85.333 0h15.781l-5.333 32h-15.781zm-139.229-16h25.141l11.843 11.844 6.026 36.156h-25.01zm198.906 48h-33.01l6.026-36.156 11.843-11.844h33.141z"/><path d="m68.422 248.844a8 8 0 0 0 -4.422 7.156v40a5.435 5.435 0 0 1 .242 1.938l8 32a8 8 0 0 0 7.758 6.062h64a8 8 0 0 0 7.758-6.062l8-32a7.578 7.578 0 0 0 .015-.812 7.486 7.486 0 0 0 .227-1.126v-48a8 8 0 0 0 -5.031-7.43l-40-16a7.967 7.967 0 0 0 -7.407.774l-23.585 15.726zm13.828 55.156h23.508l4 16h-23.508zm55.5 16h-11.508l-4-16h19.508zm-45.312-65.344 20.5-13.664 31.062 12.422v34.586h-64v-27.055l11.578-5.789a7.158 7.158 0 0 0 .86-.5z"/><path d="m80 352h64v16h-64z"/><path d="m104 384h80v16h-80z"/><path d="m136 456h48v16h-48z"/><path d="m152 208h32v16h-32z"/><path d="m96 176h64v16h-64z"/></g></svg>