<svg height="511pt" viewBox="0 0 511 511.9985" width="511pt" xmlns="http://www.w3.org/2000/svg"><path d="m398.296875 334.164062c-6.035156-6.035156-15.976563-5.847656-21.753906.574219l-9.519531 10.574219-23.515626-23.515625c29.273438-34.117187 46.984376-78.425781 46.984376-126.800781 0-107.519532-87.476563-194.996094-194.996094-194.996094-107.523438 0-194.996094 87.476562-194.996094 194.996094 0 107.519531 87.472656 194.996094 194.996094 194.996094 48.371094 0 92.683594-17.710938 126.800781-46.984376l24.632813 24.632813-10.574219 11.75c-5.335938 5.929687-5.101563 15 .542969 20.640625l98.773437 98.773438c17.589844 17.589843 46.042969 17.59375 63.636719 0 8.5-8.5 13.183594-19.800782 13.183594-31.816407s-4.683594-23.316406-13.183594-31.816406zm-367.796875-139.167968c0-90.980469 74.015625-164.996094 164.996094-164.996094 90.980468 0 164.996094 74.015625 164.996094 164.996094 0 90.980468-74.015626 164.996094-164.996094 164.996094-90.980469 0-164.996094-74.015626-164.996094-164.996094zm447.59375 282.597656c-5.863281 5.867188-15.339844 5.867188-21.207031 0l-88.714844-88.710938 20.09375-22.324218 89.828125 89.828125c5.847656 5.847656 5.847656 15.359375 0 21.207031zm0 0"/><path d="m195.496094 60c-74.4375 0-134.996094 60.558594-134.996094 134.996094s60.558594 134.996094 134.996094 134.996094 134.996094-60.558594 134.996094-134.996094-60.558594-134.996094-134.996094-134.996094zm0 239.996094c-57.898438 0-105-47.105469-105-105 0-57.894532 47.101562-104.996094 105-104.996094 57.894531 0 104.996094 47.101562 104.996094 104.996094 0 57.894531-47.101563 105-104.996094 105zm0 0"/><path d="m195.496094 119.996094c-24.8125 0-45 20.1875-45 45 0 8.285156 6.714844 15 15 15s15-6.714844 15-15c0-8.269532 6.726562-15 15-15 8.269531 0 15 6.730468 15 15 0 8.273437-6.730469 15-15 15-8.273438 0-14.953125 6.699218-14.96875 14.972656l-.03125 15c-.015625 8.28125 6.660156 15.011719 14.941406 15.027344h.03125c8.269531 0 14.980469-6.699219 15-14.972656l.003906-2.589844c17.472656-6.183594 30.023438-22.871094 30.023438-42.4375 0-24.8125-20.1875-45-45-45zm0 0"/><path d="m210.464844 254.996094c0 8.28125-6.714844 15-15 15-8.28125 0-15-6.71875-15-15 0-8.285156 6.71875-15 15-15 8.285156 0 15 6.714844 15 15zm0 0"/></svg>