<svg id="Capa_1" enable-background="new 0 0 512 512" height="512" viewBox="0 0 512 512" width="512" xmlns="http://www.w3.org/2000/svg"><g><g><path d="m308.162 357.068h38.571v147.432h-38.571z" fill="#975941"/><path d="m392.94 318.548c3.802-5.173 6.052-11.557 6.052-18.469 0-17.243-13.979-31.222-31.222-31.222h-47.392c-17.243 0-31.222 13.979-31.222 31.222 0 6.912 2.25 13.296 6.052 18.469-11.573 4.569-19.765 15.846-19.765 29.043 0 17.243 13.979 31.222 31.222 31.222h74.817c17.243 0 31.222-13.979 31.222-31.222.001-13.197-8.191-24.474-19.764-29.043z" fill="#95d6a4"/><path d="m331.98 369.667c5.654 5.654 13.451 9.144 22.074 9.144h-47.384c-8.624 0-16.431-3.49-22.084-9.144-5.654-5.654-9.144-13.451-9.144-22.074 0-13.195 8.195-24.472 19.768-29.044-1.908-2.582-3.419-5.48-4.45-8.583-1.041-3.102-1.602-6.429-1.602-9.889 0-17.237 13.981-31.218 31.218-31.218h47.395c-17.247 0-31.228 13.981-31.228 31.218 0 3.46.561 6.786 1.602 9.889 1.041 3.102 2.551 6.001 4.46 8.583-11.573 4.572-19.768 15.849-19.768 29.044-.001 8.623 3.49 16.42 9.143 22.074z" fill="#78c2a4"/><path d="m252.505 183.544h63.801v320.956h-63.801z" fill="#aa6951"/><path d="m252.505 183.544h24.435v320.956h-24.435z" fill="#975941"/><path d="m381.303 66.568h-1.296c3.509-5.857 5.53-12.707 5.53-20.031 0-21.559-17.477-39.036-39.036-39.036h-124.191c-21.559 0-39.036 17.477-39.036 39.036 0 7.324 2.021 14.175 5.53 20.031h-1.296c-21.559 0-39.036 17.477-39.036 39.036 0 21.559 17.477 39.036 39.036 39.036h2.579c-4.296 6.271-6.813 13.856-6.813 22.032 0 21.559 17.477 39.036 39.036 39.036h124.192c21.559 0 39.036-17.477 39.036-39.036 0-8.175-2.517-15.761-6.813-22.032h2.578c21.559 0 39.036-17.477 39.036-39.036 0-21.559-17.477-39.036-39.036-39.036z" fill="#95d6a4"/><path d="m253.077 194.278c7.062 7.062 16.818 11.43 27.605 11.43h-58.375c-10.787 0-20.543-4.368-27.605-11.43-7.062-7.072-11.43-16.829-11.43-27.605 0-8.174 2.521-15.757 6.807-22.033h-2.572c-10.787 0-20.543-4.368-27.605-11.43s-11.43-16.818-11.43-27.605c0-21.564 17.472-39.035 39.035-39.035h1.296c-1.755-2.929-3.143-6.103-4.082-9.471-.939-3.358-1.449-6.899-1.449-10.562 0-21.554 17.472-39.035 39.035-39.035h58.375c-21.564 0-39.035 17.482-39.035 39.035 0 3.664.51 7.205 1.449 10.562.939 3.368 2.327 6.542 4.072 9.471h-1.296c-21.554 0-39.035 17.472-39.035 39.035 0 10.787 4.368 20.543 11.44 27.605 7.062 7.062 16.818 11.43 27.595 11.43h2.582c-4.296 6.276-6.807 13.859-6.807 22.033 0 10.776 4.368 20.533 11.43 27.605z" fill="#78c2a4"/><path d="m163.067 266.117h33.937v238.383h-33.937z" fill="#aa6951"/><path d="m163.067 266.117h16.968v238.383h-16.968z" fill="#975941"/><path d="m248.644 224.857c3.802-5.173 6.052-11.557 6.052-18.469 0-17.243-13.979-31.222-31.222-31.222h-86.879c-17.243 0-31.222 13.979-31.222 31.222 0 6.912 2.25 13.296 6.052 18.469-11.573 4.569-19.765 15.846-19.765 29.043 0 17.243 13.979 31.222 31.222 31.222h114.304c17.243 0 31.222-13.979 31.222-31.222.001-13.197-8.191-24.474-19.764-29.043z" fill="#95d6a4"/><path d="m136.521 275.986c5.654 5.654 13.451 9.144 22.074 9.144h-35.719c-8.623 0-16.42-3.49-22.074-9.144s-9.144-13.461-9.144-22.084c0-13.195 8.195-24.472 19.768-29.044-1.908-2.592-3.419-5.47-4.45-8.583-1.041-3.102-1.602-6.419-1.602-9.879 0-17.247 13.971-31.228 31.218-31.228h35.719c-17.247 0-31.218 13.981-31.218 31.228 0 3.46.561 6.776 1.602 9.879 1.031 3.113 2.541 5.991 4.45 8.583-11.573 4.572-19.768 15.849-19.768 29.044 0 8.623 3.49 16.43 9.144 22.084z" fill="#78c2a4"/></g><path d="m403.268 315.584c2.126-4.845 3.228-10.092 3.228-15.504 0-10.342-4.03-20.066-11.352-27.388-7.321-7.307-17.044-11.332-27.378-11.332h-43.959v-48.15h15.195v15.115c0 4.142 3.358 7.5 7.5 7.5s7.5-3.358 7.5-7.5v-15.726c22.106-3.596 39.037-22.818 39.037-45.928 0-4.775-.723-9.482-2.144-13.974-.152-.486-.313-.97-.481-1.451 21.313-4.245 37.425-23.098 37.425-45.645 0-12.431-4.839-24.116-13.626-32.903-6.45-6.45-14.462-10.773-23.184-12.617 1.327-4.367 2.011-8.929 2.011-13.54 0-6.261-1.225-12.339-3.639-18.065-1.61-3.816-6.008-5.605-9.825-3.996-3.816 1.61-5.605 6.009-3.996 9.825 1.633 3.871 2.46 7.987 2.46 12.236 0 5.707-1.544 11.3-4.464 16.176-1.388 2.317-1.423 5.202-.091 7.552s3.824 3.802 6.525 3.802h1.3c8.424 0 16.343 3.279 22.297 9.233s9.233 13.873 9.233 22.297c0 17.391-14.144 31.54-31.53 31.54h-2.58c-2.78 0-5.332 1.537-6.63 3.995-1.299 2.458-1.133 5.432.433 7.729 1.772 2.601 3.136 5.4 4.057 8.337.962 3.044 1.451 6.23 1.451 9.469 0 17.391-14.145 31.54-31.53 31.54h-85.191c-3.765-17.436-19.299-30.544-37.845-30.544h-32.669c-.01-.332-.027-.663-.027-.996 0-6.383 1.902-12.536 5.5-17.795 1.571-2.296 1.742-5.273.444-7.734s-3.852-4.001-6.634-4.001h-2.58c-8.426 0-16.343-3.281-22.296-9.243-5.954-5.954-9.233-13.873-9.233-22.297 0-17.386 14.144-31.53 31.53-31.53h1.3c2.703 0 5.196-1.454 6.527-3.806 1.331-2.353 1.293-5.239-.098-7.556-1.431-2.382-2.537-4.949-3.287-7.628-.778-2.782-1.173-5.655-1.173-8.54 0-17.391 14.145-31.54 31.53-31.54h124.2c4.256 0 8.372.83 12.234 2.466 3.814 1.616 8.216-.166 9.832-3.98s-.166-8.216-3.98-9.832c-5.724-2.426-11.809-3.655-18.086-3.655h-124.2c-25.657 0-46.53 20.878-46.53 46.54 0 4.25.581 8.483 1.728 12.581.091.325.185.648.283.97-21.007 4.482-36.81 23.185-36.81 45.509 0 12.43 4.839 24.116 13.623 32.899 6.598 6.607 14.833 10.984 23.794 12.754-1.727 4.915-2.617 10.113-2.617 15.417 0 .332.02.664.027.996h-39.21c-21.351 0-38.722 17.371-38.722 38.722 0 5.402 1.099 10.642 3.218 15.485-10.493 7.095-16.932 18.938-16.932 32.027 0 18.785 13.449 34.483 31.222 37.987v118.123c0 4.142 3.358 7.5 7.5 7.5s7.5-3.358 7.5-7.5v-117.388h25.185v144.188c0 4.142 3.358 7.5 7.5 7.5s7.5-3.358 7.5-7.5v-144.188h18.94v204.378h-18.94v-30.23c0-4.142-3.358-7.5-7.5-7.5s-7.5 3.358-7.5 7.5v30.23h-47.976c-4.142 0-7.5 3.358-7.5 7.5s3.358 7.5 7.5 7.5h292.198c4.142 0 7.5-3.358 7.5-7.5s-3.358-7.5-7.5-7.5h-45.556v-110.69h19.748v87.84c0 4.142 3.358 7.5 7.5 7.5s7.5-3.358 7.5-7.5v-88.575c17.774-3.502 31.223-19.2 31.223-37.985 0-7.917-2.377-15.535-6.884-22.044-2.742-3.941-6.146-7.305-10.053-9.962zm-166.081-22.962c2.677 0 5.292-.274 7.818-.794v67.718c-9.341-4.111-15.883-13.451-15.883-24.294v-.328-42.303h8.065zm-8.065 74.555c4.572 3.806 9.97 6.648 15.883 8.218v33.954c-9.341-4.111-15.883-13.451-15.883-24.294zm30.883 9.379c8.384-.877 16.031-4.258 22.183-9.379v17.878c0 13.148-9.616 24.088-22.183 26.17zm22.183-121.045v79.741c0 13.148-9.616 24.088-22.183 26.17v-76.265c9.633-7.051 15.904-18.433 15.904-31.258 0-13.089-6.438-24.932-16.932-32.027 1.213-2.771 2.08-5.676 2.61-8.663h20.601zm-183.027-1.611c0-9.803 5.896-18.464 15.019-22.067 2.164-.854 3.809-2.664 4.453-4.9s.214-4.643-1.164-6.518c-3.006-4.09-4.595-8.941-4.595-14.027 0-13.081 10.642-23.722 23.722-23.722h86.878c13.081 0 23.722 10.642 23.722 23.722 0 5.087-1.589 9.937-4.595 14.027-1.378 1.875-1.808 4.282-1.164 6.518s2.289 4.046 4.453 4.9c9.124 3.603 15.02 12.264 15.02 22.067 0 13.08-10.642 23.722-23.722 23.722h-114.304c-13.081 0-23.723-10.642-23.723-23.722zm105.348 38.722h9.614v42.303.328 49.803c0 19.22 13.126 35.427 30.883 40.143v71.801h-40.497zm103.657 204.378h-48.161v-70.641c20.864-2.182 37.183-19.872 37.183-41.304v-49.803-79.741-42.301h11.618v165.581c0 .007-.001.013-.001.019s.001.013.001.019v118.171zm31.07 0h-15.429v-110.69h15.429zm42.25-125.69h-57.679v-94.95h43.959c6.333 0 12.292 2.468 16.776 6.943 4.484 4.484 6.954 10.442 6.954 16.777 0 5.091-1.59 9.939-4.598 14.021-1.381 1.874-1.813 4.282-1.171 6.519s2.287 4.049 4.451 4.905c4.382 1.733 8.128 4.703 10.822 8.575 2.751 3.974 4.206 8.639 4.206 13.49 0 13.079-10.641 23.72-23.72 23.72z"/></g></svg>