<svg id="Capa_1" enable-background="new 0 0 511.918 511.918" height="512" viewBox="0 0 511.918 511.918" width="512" xmlns="http://www.w3.org/2000/svg"><g><path d="m450.644 287.781-21.213-21.213-68.601 68.601-37.393-37.393-21.213 21.213 58.606 58.607z"/><path d="m0 180.396v270.959h511.918v-270.959zm240.959 240.959h-210.959v-210.959h210.959zm240.959 0h-210.959v-210.959h210.959z"/><path d="m84.188 388.458 51.33-51.331 51.331 51.331 21.213-21.213-51.331-51.331 51.331-51.331-21.213-21.212-51.331 51.33-51.33-51.33-21.213 21.212 51.33 51.331-51.33 51.331z"/><path d="m104.032 150.479h292.519l56.293-36.729v-16.458l-56.293-36.729h-292.519c-24.79 0-44.958 20.168-44.958 44.958s20.168 44.958 44.958 44.958zm306.524-44.958-22.383 14.604v-29.207zm-261.566-14.958h209.183v29.917h-209.183zm-44.958 0h14.958v29.917h-14.958c-8.248 0-14.958-6.71-14.958-14.958s6.71-14.959 14.958-14.959z"/></g></svg>